<?xml version="1.0" encoding="utf-8"?>
<!-- Generator: Adobe Illustrator 18.1.0, SVG Export Plug-In . SVG Version: 6.00 Build 0)  -->
<svg version="1.1" id="Laura" xmlns="http://www.w3.org/2000/svg" xmlns:xlink="http://www.w3.org/1999/xlink" x="0px" y="0px"
	 viewBox="0 0 565 725" enable-background="new 0 0 565 725" xml:space="preserve">
<path id="Dress" fill="#7F3B49" d="M373.6,432.4c0,0-1.6-8.6-5.4-11.3c-7.4-5.3-18.9-0.6-18.9-0.6s-0.8-2.1-2.5-2.1
	c-1,0-24.7,0-45.5,0l-19.5,100.3l0-1.2l0,1.2l-21.1-100.3c-20.7,0-44.3,0-45.3,0c-1.7,0-2.6,2.1-2.6,2.1s-3.3-4.5-12.2-2.1
	c-9,2.4-13.4,13-13.4,13L132,492.1l-84.3-47.3l-9.8,17.3l98.3,55.2l58.8-60.5v146.8h24.2l-13.7,120h150.7l-12.8-120H366V486.3
	l38.4,159.9l19.1-4.5L373.6,432.4z"/>
<path id="LHand" fill="#F8D8BF" d="M428.9,659.5c-0.6-7.2-5.6-12-8.2-17.1l-12.4,2.9c-0.7,14,1.8,18.8,3.9,20.6
	c2.2,1.9,2.9-2.4,2.9-2.4C426.5,678.9,429.6,668.7,428.9,659.5z"/>
<path id="RHand" fill="#F8D8BF" d="M45.5,448.7c-8.6-10.9-13.5-12.8-16.3-12.8c-2.9,0-0.6,3.7-0.6,3.7c-18.8-4.3-14.4,5.4-7.9,11.9
	c5.5,5.4,13.1,5.5,18.5,8.1L45.5,448.7z"/>
<path id="PonTail" fill="#594434" d="M410.1,348.3c-11.6,30.6-44.3,54.2-44.3,54.2s18.2,2.4,28.2,0c7.1-4,12.7-13.1,12.7-13.1
	s-2.8,5.8-5.9,13.1c15.1-4,21.4-8.7,27.8-21.8c4.5-9.3,3.2-36.6,2.1-51.8C424.2,335.8,417.4,342.3,410.1,348.3z"/>
<path id="Neck" fill="#F5CBB5" d="M281,423.9l17-11.9v-22.5c-6,0.4-10.8,0.7-15.9,0.7c-5.9,0-12.1-0.3-18.1-0.9V412L281,423.9z"/>
<path id="LEar" fill="#F5CBB5" d="M473.4,238.1c-3.8,15.6-10.3,30.5-19,44.5c20.2-1,36-9.5,36-23.1
	C490.3,250.7,483.6,242.8,473.4,238.1z"/>
<path id="REar" fill="#F5CBB5" d="M93,235.3c-11.1,5.1-18.3,13.3-18.3,22.6c0,14.4,17.2,23.4,39.4,24.6
	C104.4,267.7,97.2,251.9,93,235.3z"/>
<path id="Hair" fill="#594434" d="M476.9,236.5c2-11,3.1-22.4,3.1-34c0-105.4-88.6-190.9-197.8-190.9S84.4,97.1,84.4,202.6
	c0,11.7,1.1,23.1,3.2,34.3c0,0,85.8-36.6,99.7-48.5c-11.9,13.1-33.7,28.2-41.3,32.5c34.5-5.6,164.6-52,212.2-84.1
	C358.3,136.7,411.9,193.5,476.9,236.5z"/>
<path id="Head" fill="#F8D8BF" d="M358.3,136.7c-47.6,32.1-177.7,78.5-212.2,84.1c7.5-4.4,29.4-19.4,41.3-32.5
	c-13.9,11.9-99.5,48.4-99.7,48.5c16.7,89.1,97.5,156.7,194.6,156.7c97.2,0,178.1-67.7,194.7-157
	C411.9,193.5,358.3,136.7,358.3,136.7z"/>
<ellipse id="Cheek2" fill="#F8BCB1" cx="168.8" cy="331.4" rx="17.5" ry="9.8"/>
<ellipse id="Cheek1" fill="#F8BCB1" cx="397.3" cy="331.4" rx="17.5" ry="9.8"/>
<ellipse id="LEye" fill="#172816" cx="376.4" cy="281.4" rx="15.9" ry="23.3"/>
<ellipse id="LCornea" fill="#FFFFFF" cx="375.1" cy="269.8" rx="4.5" ry="4.3"/>
<ellipse id="REye" fill="#172816" cx="187.6" cy="281.4" rx="15.9" ry="23.3"/>
<ellipse id="RCornea" fill="#FFFFFF" cx="186.2" cy="269.8" rx="4.5" ry="4.3"/>
<path id="Mouth" fill="#DF3410" stroke="#9D3218" stroke-miterlimit="10" d="M300.7,348c0,8-11.6,17.3-18.5,17.3
	c-6.9,0-18.5-9.3-18.5-17.3H300.7z"/>
<polyline id="Lapel2" fill="none" stroke="#3F1C24" stroke-miterlimit="10" points="260,417.3 230.1,444.3 246,458 231.5,465.2 
	280.1,529.4 "/>
<polyline id="Lapel1" fill="none" stroke="#3F1C24" stroke-miterlimit="10" points="301.8,417.3 332.5,444.3 316.6,458 331.2,465.2 
	284.3,527.1 "/>
<circle id="Button2" fill="#3F1C24" cx="280.9" cy="552.4" r="6.1"/>
<circle id="Button1" fill="#3F1C24" cx="280.9" cy="578.1" r="6.1"/>
<polygon id="Shirt_1_" fill="#FFFBFF" points="301.3,418.2 298.1,412.8 280.9,423.9 263.7,412.8 260.6,418.2 281.7,518.7 
	281.7,517.5 281.7,518.7 "/>
<polyline id="Collar" fill="none" stroke="#7F3B49" stroke-miterlimit="10" points="268.2,447.9 281.7,428.9 293.4,447.9 "/>
<g id="knot">
	<path fill="#FFFFFF" d="M321.2,445.1c-2.6,0.4-5.2,2.4-1.7,5c0.3-0.7,0.2-1.2,0.2-1.2c-0.5-0.6-1.5-1,0.2-2
		c0.7,4.3-3,11.6-5.9,14.8l0,0c0.3,0.3,0.6,0.7,1.1,1.2c2.9-3.5,6.6-9.9,6.3-17.8"/>
	<path fill="#FFFFFF" d="M314.9,460.1c0.3-0.4,0.7-1.1,1-1.5c-2.6-1.4-5.4-1.9-6.9-2c1,3.9,5.8,10.9,12.4,11.5
		c0-0.5-0.2-1.2-0.3-1.7c-5.5-1.2-8.2-5.6-9.3-7.6C313.4,459.3,314.5,459.9,314.9,460.1L314.9,460.1z"/>
	<path fill="#FFFFFF" d="M318.7,462.7c0.2-0.3,0.7-1.1,0.9-1.5c-0.5-0.4-1.1-1-1.8-1.4c-0.3,0.4-0.7,1.1-0.9,1.4
		C317.5,461.6,318,462,318.7,462.7L318.7,462.7z"/>
	<path fill="#FFFFFF" d="M321.8,468.1c0.5-0.1,1.3-0.2,1.6-0.3c-0.1-2-1.3-4-1.9-4.9c-0.3,0.5-0.8,1.1-1,1.4
		C321.1,465.3,321.7,467.3,321.8,468.1L321.8,468.1z"/>
	<path fill="#FFFFFF" d="M317.6,464.7c0.3,0.2,1.2,0.7,1.5,0.7c0.7-0.6,3.1-4.1,3.5-5.5c0.2,0.3,1.1,1.5,1.6,2
		c0.2-0.5,0.7-1.3,0.9-1.7c-1.2-1.3-2.1-2.5-3.2-4.5C321.8,458.7,318.9,463.3,317.6,464.7L317.6,464.7z"/>
	<path fill="#FFFFFF" d="M326.1,458.8l-4.8-7.1l0.4-1.7c0,0,3.4,5,5.8,7.2"/>
	<path fill="#FFFFFF" d="M346.7,465.5c-0.5-2.6-2.4-5.2-5.1-1.6c0.7,0.3,1.2,0.2,1.2,0.2c0.6-0.5,0.9-1.5,2,0.2
		c-4.3,0.8-11.6-2.8-14.9-5.6l0,0c-0.3,0.3-0.7,0.7-1.1,1.2c3.5,2.8,10,6.4,17.9,6"/>
	<path fill="#FFFFFF" d="M331.6,459.5c0.4,0.3,1.1,0.7,1.5,0.9c1.4-2.6,1.8-5.5,1.8-6.9c-3.9,1-10.8,5.9-11.3,12.6
		c0.5,0,1.2-0.2,1.7-0.4c1.2-5.5,5.4-8.3,7.4-9.5C332.3,458,331.8,459.1,331.6,459.5L331.6,459.5z"/>
	<path fill="#FFFFFF" d="M329.1,463.3c0.3,0.2,1.1,0.7,1.5,0.9c0.4-0.5,1-1.1,1.4-1.8c-0.4-0.3-1.1-0.6-1.4-0.9
		C330.1,462.1,329.7,462.6,329.1,463.3L329.1,463.3z"/>
	<path fill="#FFFFFF" d="M323.7,466.5c0.1,0.5,0.2,1.3,0.3,1.6c2-0.2,4-1.4,4.8-2c-0.5-0.3-1.1-0.8-1.4-1
		C326.5,465.8,324.5,466.4,323.7,466.5L323.7,466.5z"/>
	<path fill="#FFFFFF" d="M327,462.3c-0.2,0.3-0.6,1.2-0.7,1.5c0.6,0.7,4.1,3,5.5,3.4c-0.3,0.2-1.4,1.1-1.9,1.7
		c0.5,0.2,1.3,0.6,1.7,0.9c1.3-1.2,2.5-2.2,4.5-3.3C333.1,466.4,328.4,463.6,327,462.3L327,462.3z"/>
	<path fill="#FFFFFF" d="M333.1,470.7l7-5l1.7,0.4c0,0-4.9,3.5-7.1,5.9"/>
	<path fill="#FFFFFF" d="M325.8,491.2c2.6-0.4,5.2-2.3,1.7-5c-0.3,0.7-0.3,1.2-0.3,1.2c0.5,0.6,1.5,1-0.2,2
		c-0.7-4.3,3.1-11.5,5.9-14.8l0,0c-0.3-0.3-0.6-0.7-1.1-1.2c-2.9,3.4-6.6,9.8-6.4,17.8"/>
	<path fill="#FFFFFF" d="M331.1,476.3c-0.3,0.4-0.7,1.1-0.9,1.5c2.4,1.5,4.9,2,6.3,2.1c-0.9-3.9-5.2-10.9-11.3-11.6
		c0,0.5,0.2,1.2,0.3,1.7c5,1.3,7.5,5.7,8.5,7.7C332.5,477.1,331.5,476.5,331.1,476.3L331.1,476.3z"/>
	<path fill="#FFFFFF" d="M328.3,473.7c-0.2,0.3-0.7,1.1-0.9,1.5c0.5,0.4,1.1,1,1.8,1.4c0.3-0.4,0.7-1.1,0.9-1.4
		C329.6,474.7,329,474.3,328.3,473.7L328.3,473.7z"/>
	<path fill="#FFFFFF" d="M325.3,468.2c-0.5,0.1-1.3,0.2-1.6,0.3c0.1,2,1.3,4.1,1.9,4.9c0.3-0.5,0.8-1.1,1-1.4
		C325.9,471,325.3,469,325.3,468.2L325.3,468.2z"/>
	<path fill="#FFFFFF" d="M329.4,471.6c-0.3-0.2-1.2-0.7-1.5-0.7c-0.8,0.6-3.1,4.1-3.6,5.4c-0.2-0.3-1.1-1.5-1.6-2
		c-0.2,0.5-0.7,1.3-1,1.7c1.2,1.3,2.1,2.5,3.1,4.5C325.2,477.6,328.1,473,329.4,471.6L329.4,471.6z"/>
	<path fill="#FFFFFF" d="M320.9,477.5l4.8,7.1l-0.4,1.7c0,0-3.3-5-5.7-7.2"/>
	<path fill="#FFFFFF" d="M300.3,470.7c0.5,2.6,2.4,5.2,5,1.7c-0.7-0.3-1.2-0.2-1.2-0.2c-0.6,0.5-1,1.5-2-0.2
		c4.3-0.7,11.6,2.9,14.9,5.7l0,0c0.3-0.3,0.7-0.6,1.1-1.1c-3.5-2.9-10-6.5-17.9-6.2"/>
	<path fill="#FFFFFF" d="M315.4,476.7c-0.4-0.3-1.1-0.7-1.5-0.9c-1.4,2.6-1.9,5.5-1.9,6.9c3.9-1,10.8-5.9,11.3-12.5
		c-0.5,0-1.2,0.2-1.7,0.4c-1.2,5.5-5.5,8.3-7.5,9.4C314.7,478.3,315.2,477.2,315.4,476.7L315.4,476.7z"/>
	<path fill="#FFFFFF" d="M317.9,472.9c-0.3-0.2-1.1-0.7-1.5-0.9c-0.4,0.5-1,1.1-1.4,1.8c0.4,0.3,1.1,0.6,1.4,0.9
		C316.9,474.2,317.3,473.6,317.9,472.9L317.9,472.9z"/>
	<path fill="#FFFFFF" d="M323.4,469.8c-0.1-0.5-0.2-1.3-0.3-1.6c-2,0.2-4,1.3-4.8,2c0.5,0.3,1.1,0.8,1.4,1
		C320.5,470.5,322.5,469.9,323.4,469.8L323.4,469.8z"/>
	<path fill="#FFFFFF" d="M320,474c0.2-0.3,0.6-1.2,0.7-1.5c-0.6-0.7-4.1-3.1-5.5-3.5c0.3-0.2,1.4-1.1,1.9-1.6
		c-0.5-0.2-1.3-0.6-1.7-0.9c-1.3,1.2-2.5,2.2-4.5,3.2C314,469.9,318.6,472.7,320,474L320,474z"/>
	<path fill="#FFFFFF" d="M313.9,465.6l-7,4.9l-1.7-0.4c0,0,5-3.4,7.1-5.8"/>
</g>
</svg>
