<?xml version="1.0" encoding="utf-8"?>
<!-- Generator: Adobe Illustrator 18.1.0, SVG Export Plug-In . SVG Version: 6.00 Build 0)  -->
<svg version="1.1" id="Laura" xmlns="http://www.w3.org/2000/svg" xmlns:xlink="http://www.w3.org/1999/xlink" x="0px" y="0px"
	 viewBox="0 0 565 725" enable-background="new 0 0 565 725" xml:space="preserve">
<path id="Dress" fill="#7F3B49" d="M373.6,432.4c0,0-1.6-8.6-5.4-11.3c-7.4-5.3-18.9-0.6-18.9-0.6s-0.8-2.1-2.5-2.1
	c-1,0-24.7,0-45.5,0l-19.5,100.3l0-1.2l0,1.2l-21.1-100.3c-20.7,0-44.3,0-45.3,0c-1.7,0-2.6,2.1-2.6,2.1s-3.3-4.5-12.2-2.1
	c-9,2.4-13.4,13-13.4,13L132,492.1l-84.3-47.3l-9.8,17.3l98.3,55.2l58.8-60.5v146.8h24.2l-13.7,120h150.7l-12.8-120H366V486.3
	l38.4,159.9l19.1-4.5L373.6,432.4z"/>
<path id="LHand" fill="#F8D8BF" d="M428.9,659.5c-0.6-7.2-5.6-12-8.2-17.1l-12.4,2.9c-0.7,14,1.8,18.8,3.9,20.6
	c2.2,1.9,2.9-2.4,2.9-2.4C426.5,678.9,429.6,668.7,428.9,659.5z"/>
<path id="RHand" fill="#F8D8BF" d="M45.5,448.7c-8.6-10.9-13.5-12.8-16.3-12.8c-2.9,0-0.6,3.7-0.6,3.7c-18.8-4.3-14.4,5.4-7.9,11.9
	c5.5,5.4,13.1,5.5,18.5,8.1L45.5,448.7z"/>
<path id="PonTail" fill="#594434" d="M410.1,348.3c-11.6,30.6-44.3,54.2-44.3,54.2s18.2,2.4,28.2,0c7.1-4,12.7-13.1,12.7-13.1
	s-2.8,5.8-5.9,13.1c15.1-4,21.4-8.7,27.8-21.8c4.5-9.3,3.2-36.6,2.1-51.8C424.2,335.8,417.4,342.3,410.1,348.3z"/>
<path id="Neck" fill="#F5CBB5" d="M281,423.9l17-11.9v-22.5c-6,0.4-10.8,0.7-15.9,0.7c-5.9,0-12.1-0.3-18.1-0.9V412L281,423.9z"/>
<path id="LEar" fill="#F5CBB5" d="M473.4,238.1c-3.8,15.6-10.3,30.5-19,44.5c20.2-1,36-9.5,36-23.1
	C490.3,250.7,483.6,242.8,473.4,238.1z"/>
<path id="REar" fill="#F5CBB5" d="M93,235.3c-11.1,5.1-18.3,13.3-18.3,22.6c0,14.4,17.2,23.4,39.4,24.6
	C104.4,267.7,97.2,251.9,93,235.3z"/>
<path id="Hair" fill="#594434" d="M476.9,236.5c2-11,3.1-22.4,3.1-34c0-105.4-88.6-190.9-197.8-190.9S84.4,97.1,84.4,202.6
	c0,11.7,1.1,23.1,3.2,34.3c0,0,85.8-36.6,99.7-48.5c-11.9,13.1-33.7,28.2-41.3,32.5c34.5-5.6,164.6-52,212.2-84.1
	C358.3,136.7,411.9,193.5,476.9,236.5z"/>
<path id="Head" fill="#F8D8BF" d="M358.3,136.7c-47.6,32.1-177.7,78.5-212.2,84.1c7.5-4.4,29.4-19.4,41.3-32.5
	c-13.9,11.9-99.5,48.4-99.7,48.5c16.7,89.1,97.5,156.7,194.6,156.7c97.2,0,178.1-67.7,194.7-157
	C411.9,193.5,358.3,136.7,358.3,136.7z"/>
<ellipse id="Cheek2" fill="#F8BCB1" cx="168.8" cy="331.4" rx="17.5" ry="9.8"/>
<ellipse id="Cheek1" fill="#F8BCB1" cx="397.3" cy="331.4" rx="17.5" ry="9.8"/>
<ellipse id="LEye" fill="#172816" cx="376.4" cy="281.4" rx="15.9" ry="23.3"/>
<ellipse id="LCornea" fill="#FFFFFF" cx="375.1" cy="269.8" rx="4.5" ry="4.3"/>
<ellipse id="REye" fill="#172816" cx="187.6" cy="281.4" rx="15.9" ry="23.3"/>
<ellipse id="RCornea" fill="#FFFFFF" cx="186.2" cy="269.8" rx="4.5" ry="4.3"/>
<path id="Mouth" fill="#DF3410" stroke="#9D3218" stroke-miterlimit="10" d="M300.7,348c0,8-11.6,17.3-18.5,17.3
	c-6.9,0-18.5-9.3-18.5-17.3H300.7z"/>
<polyline id="Lapel2" fill="none" stroke="#3F1C24" stroke-miterlimit="10" points="260,417.3 230.1,444.3 246,458 231.5,465.2 
	280.1,529.4 "/>
<polyline id="Lapel1" fill="none" stroke="#3F1C24" stroke-miterlimit="10" points="301.8,417.3 332.5,444.3 316.6,458 331.2,465.2 
	284.3,527.1 "/>
<circle id="Button2" fill="#3F1C24" cx="280.9" cy="552.4" r="6.1"/>
<circle id="Button1" fill="#3F1C24" cx="280.9" cy="578.1" r="6.1"/>
<polygon id="Shirt_1_" fill="#FFFBFF" points="301.3,418.2 298.1,412.8 280.9,423.9 263.7,412.8 260.6,418.2 281.7,518.7 
	281.7,517.5 281.7,518.7 "/>
<polyline id="Collar" fill="none" stroke="#7F3B49" stroke-miterlimit="10" points="268.2,447.9 281.7,428.9 293.4,447.9 "/>
</svg>
