<?xml version="1.0" encoding="utf-8"?>
<!-- Generator: Adobe Illustrator 18.1.0, SVG Export Plug-In . SVG Version: 6.00 Build 0)  -->
<svg version="1.1" id="logo" xmlns="http://www.w3.org/2000/svg" xmlns:xlink="http://www.w3.org/1999/xlink" x="0px" y="0px"
	 viewBox="0 0 160 88" enable-background="new 0 0 160 88" xml:space="preserve">
<g id="knot">
	<g>
		<path fill-rule="evenodd" clip-rule="evenodd" fill="#803C4A" d="M133.6,10c-2.6,0.4-5.2,2.4-1.7,5c0.3-0.7,0.2-1.2,0.2-1.2
			c-0.5-0.6-1.5-1,0.2-2c0.7,4.3-3,11.6-5.9,14.8l0,0c0.3,0.3,0.6,0.7,1.1,1.2c2.9-3.5,6.6-9.9,6.3-17.8"/>
	</g>
	<g>
		<path fill-rule="evenodd" clip-rule="evenodd" fill="#803C4A" d="M127.4,25c0.3-0.4,0.7-1.1,1-1.5c-2.6-1.4-5.4-1.9-6.9-2
			c1,3.9,5.8,10.9,12.4,11.5c0-0.5-0.2-1.2-0.3-1.7c-5.5-1.2-8.2-5.6-9.3-7.6C125.8,24.2,126.9,24.8,127.4,25L127.4,25z"/>
	</g>
	<g>
		<path fill-rule="evenodd" clip-rule="evenodd" fill="#803C4A" d="M131.1,27.5c0.2-0.3,0.7-1.1,0.9-1.5c-0.5-0.4-1.1-1-1.8-1.4
			c-0.3,0.4-0.7,1.1-0.9,1.4C129.9,26.5,130.4,26.9,131.1,27.5L131.1,27.5z"/>
	</g>
	<g>
		<path fill-rule="evenodd" clip-rule="evenodd" fill="#803C4A" d="M134.2,33c0.5-0.1,1.3-0.2,1.6-0.3c-0.1-2-1.3-4-1.9-4.9
			c-0.3,0.5-0.8,1.1-1,1.4C133.5,30.1,134.1,32.2,134.2,33L134.2,33z"/>
	</g>
	<g>
		<path fill-rule="evenodd" clip-rule="evenodd" fill="#803C4A" d="M130,29.6c0.3,0.2,1.2,0.7,1.5,0.7c0.7-0.6,3.1-4.1,3.5-5.5
			c0.2,0.3,1.1,1.5,1.6,2c0.2-0.5,0.7-1.3,0.9-1.7c-1.2-1.3-2.1-2.5-3.2-4.5C134.2,23.6,131.4,28.2,130,29.6L130,29.6z"/>
	</g>
	<g>
		<path fill-rule="evenodd" clip-rule="evenodd" fill="#803C4A" d="M138.5,23.6l-4.8-7.1l0.4-1.7c0,0,3.4,5,5.8,7.2"/>
	</g>
	<g>
		<path fill-rule="evenodd" clip-rule="evenodd" fill="#803C4A" d="M159.1,30.4c-0.5-2.6-2.4-5.2-5.1-1.6c0.7,0.3,1.2,0.2,1.2,0.2
			c0.6-0.5,0.9-1.5,2,0.2c-4.3,0.8-11.6-2.8-14.9-5.6l0,0c-0.3,0.3-0.7,0.7-1.1,1.2c3.5,2.8,10,6.4,17.9,6"/>
	</g>
	<g>
		<path fill-rule="evenodd" clip-rule="evenodd" fill="#803C4A" d="M144,24.4c0.4,0.3,1.1,0.7,1.5,0.9c1.4-2.6,1.8-5.5,1.8-6.9
			c-3.9,1-10.8,5.9-11.3,12.6c0.5,0,1.2-0.2,1.7-0.4c1.2-5.5,5.4-8.3,7.4-9.5C144.8,22.8,144.2,23.9,144,24.4L144,24.4z"/>
	</g>
	<g>
		<path fill-rule="evenodd" clip-rule="evenodd" fill="#803C4A" d="M141.5,28.2c0.3,0.2,1.1,0.7,1.5,0.9c0.4-0.5,1-1.1,1.4-1.8
			c-0.4-0.3-1.1-0.6-1.4-0.9C142.5,26.9,142.1,27.5,141.5,28.2L141.5,28.2z"/>
	</g>
	<g>
		<path fill-rule="evenodd" clip-rule="evenodd" fill="#803C4A" d="M136.1,31.4c0.1,0.5,0.2,1.3,0.3,1.6c2-0.2,4-1.4,4.8-2
			c-0.5-0.3-1.1-0.8-1.4-1C139,30.6,137,31.3,136.1,31.4L136.1,31.4z"/>
	</g>
	<g>
		<path fill-rule="evenodd" clip-rule="evenodd" fill="#803C4A" d="M139.5,27.1c-0.2,0.3-0.6,1.2-0.7,1.5c0.6,0.7,4.1,3,5.5,3.4
			c-0.3,0.2-1.4,1.1-1.9,1.7c0.5,0.2,1.3,0.6,1.7,0.9c1.3-1.2,2.5-2.2,4.5-3.3C145.5,31.2,140.9,28.4,139.5,27.1L139.5,27.1z"/>
	</g>
	<g>
		<path fill-rule="evenodd" clip-rule="evenodd" fill="#803C4A" d="M145.6,35.5l7-5l1.7,0.4c0,0-4.9,3.5-7.1,5.9"/>
	</g>
	<g>
		<path fill-rule="evenodd" clip-rule="evenodd" fill="#803C4A" d="M138.2,56.1c2.6-0.4,5.2-2.3,1.7-5c-0.3,0.7-0.3,1.2-0.3,1.2
			c0.5,0.6,1.5,1-0.2,2c-0.7-4.3,3.1-11.5,5.9-14.8l0,0c-0.3-0.3-0.6-0.7-1.1-1.2c-2.9,3.4-6.6,9.8-6.4,17.8"/>
	</g>
	<g>
		<path fill-rule="evenodd" clip-rule="evenodd" fill="#803C4A" d="M143.5,41.2c-0.3,0.4-0.7,1.1-0.9,1.5c2.4,1.5,4.9,2,6.3,2.1
			c-0.9-3.9-5.2-10.9-11.3-11.6c0,0.5,0.2,1.2,0.3,1.7c5,1.3,7.5,5.7,8.5,7.7C144.9,42,143.9,41.4,143.5,41.2L143.5,41.2z"/>
	</g>
	<g>
		<path fill-rule="evenodd" clip-rule="evenodd" fill="#803C4A" d="M140.8,38.5c-0.2,0.3-0.7,1.1-0.9,1.5c0.5,0.4,1.1,1,1.8,1.4
			c0.3-0.4,0.7-1.1,0.9-1.4C142,39.6,141.4,39.2,140.8,38.5L140.8,38.5z"/>
	</g>
	<g>
		<path fill-rule="evenodd" clip-rule="evenodd" fill="#803C4A" d="M137.7,33c-0.5,0.1-1.3,0.2-1.6,0.3c0.1,2,1.3,4.1,1.9,4.9
			c0.3-0.5,0.8-1.1,1-1.4C138.4,35.9,137.8,33.9,137.7,33L137.7,33z"/>
	</g>
	<g>
		<path fill-rule="evenodd" clip-rule="evenodd" fill="#803C4A" d="M141.9,36.5c-0.3-0.2-1.2-0.7-1.5-0.7c-0.8,0.6-3.1,4.1-3.6,5.4
			c-0.2-0.3-1.1-1.5-1.6-2c-0.2,0.5-0.7,1.3-1,1.7c1.2,1.3,2.1,2.5,3.1,4.5C137.6,42.4,140.5,37.9,141.9,36.5L141.9,36.5z"/>
	</g>
	<g>
		<path fill-rule="evenodd" clip-rule="evenodd" fill="#803C4A" d="M133.3,42.4l4.8,7.1l-0.4,1.7c0,0-3.3-5-5.7-7.2"/>
	</g>
	<g>
		<path fill-rule="evenodd" clip-rule="evenodd" fill="#803C4A" d="M112.8,35.5c0.5,2.6,2.4,5.2,5,1.7c-0.7-0.3-1.2-0.2-1.2-0.2
			c-0.6,0.5-1,1.5-2-0.2c4.3-0.7,11.6,2.9,14.9,5.7l0,0c0.3-0.3,0.7-0.6,1.1-1.1c-3.5-2.9-10-6.5-17.9-6.2"/>
	</g>
	<g>
		<path fill-rule="evenodd" clip-rule="evenodd" fill="#803C4A" d="M127.9,41.6c-0.4-0.3-1.1-0.7-1.5-0.9c-1.4,2.6-1.9,5.5-1.9,6.9
			c3.9-1,10.8-5.9,11.3-12.5c-0.5,0-1.2,0.2-1.7,0.4c-1.2,5.5-5.5,8.3-7.5,9.4C127.1,43.1,127.6,42,127.9,41.6L127.9,41.6z"/>
	</g>
	<g>
		<path fill-rule="evenodd" clip-rule="evenodd" fill="#803C4A" d="M130.3,37.8c-0.3-0.2-1.1-0.7-1.5-0.9c-0.4,0.5-1,1.1-1.4,1.8
			c0.4,0.3,1.1,0.6,1.4,0.9C129.3,39.1,129.7,38.5,130.3,37.8L130.3,37.8z"/>
	</g>
	<g>
		<path fill-rule="evenodd" clip-rule="evenodd" fill="#803C4A" d="M135.8,34.7c-0.1-0.5-0.2-1.3-0.3-1.6c-2,0.2-4,1.3-4.8,2
			c0.5,0.3,1.1,0.8,1.4,1C132.9,35.4,134.9,34.7,135.8,34.7L135.8,34.7z"/>
	</g>
	<g>
		<path fill-rule="evenodd" clip-rule="evenodd" fill="#803C4A" d="M132.4,38.9c0.2-0.3,0.6-1.2,0.7-1.5c-0.6-0.7-4.1-3.1-5.5-3.5
			c0.3-0.2,1.4-1.1,1.9-1.6c-0.5-0.2-1.3-0.6-1.7-0.9c-1.3,1.2-2.5,2.2-4.5,3.2C126.4,34.7,131,37.6,132.4,38.9L132.4,38.9z"/>
	</g>
	<g>
		<path fill-rule="evenodd" clip-rule="evenodd" fill="#803C4A" d="M126.4,30.4l-7,4.9l-1.7-0.4c0,0,5-3.4,7.1-5.8"/>
	</g>
</g>
<g id="laura-soule">
	<path fill="#231F20" d="M16.3,48.9c0-0.2-0.1-0.3-0.1-0.6c-0.1-0.1-0.2-0.3-0.3-0.5l-0.4-0.7L15,47.8c-0.2,0.2-0.4,0.6-0.8,1.1
		c-0.4,0.5-0.8,1.1-1.4,1.7c-0.5,0.6-1.1,1.3-1.7,1.9c-0.6,0.6-1.2,1.1-1.7,1.5c-0.5,0.4-1.1,0.6-1.5,0.7c-0.4,0.1-0.6,0-0.9-0.2
		c-0.1-0.4-0.3-1-0.4-1.8c-0.1-0.9-0.2-2-0.3-3.3c-0.1-1.2-0.2-2.6-0.2-4.1c0-1.5-0.1-3-0.1-4.5c0-1.5,0-3-0.1-4.5l0-3.9
		c0-1.2,0-2.2,0-3c0-0.8,0-1.4-0.1-1.6l-0.1-0.4l-0.4,0c-0.4,0-0.7,0-1,0.1c-0.3,0.1-0.5,0.2-0.7,0.3c-0.2,0.1-0.4,0.3-0.6,0.4
		c-0.1,0.1-0.2,0.2-0.4,0.3l-0.3,0.2l0,0.4c0,0.3,0.1,0.8,0.2,1.5c0.1,0.7,0.2,1.8,0.4,3.3c0.1,1.5,0.3,3.4,0.4,5.7
		c0.1,2.3,0.2,5.2,0.2,8.6c0,1.2,0.1,2.3,0.1,3.3c0,1,0.1,1.8,0.1,2.6c0.1,0.8,0.2,1.5,0.3,2.1c0.1,0.6,0.4,1.2,0.7,1.7l0.1,0.1
		c0.6,0.5,1.2,0.7,1.9,0.7c0.2,0,0.5,0,0.7-0.1c0.7-0.2,1.5-0.6,2.6-1.3c0.4-0.3,0.9-0.8,1.5-1.3c0.5-0.5,1.1-1.2,1.7-1.9
		c0.6-0.7,1.1-1.4,1.6-2.1c0.5-0.7,1-1.5,1.4-2.2C16.3,49.4,16.4,49.2,16.3,48.9z"/>
	<path fill="#231F20" d="M50.6,46.5c0.3-0.3,0.4-0.6,0.4-1l0-0.5l-0.5,0c-1.2-0.1-2.2,0-3.1,0.2c-0.9,0.2-1.7,0.5-2.4,1
		c-0.7,0.4-1.3,1-1.7,1.6c0,0.1-0.1,0.1-0.1,0.2l0-0.8c0-0.4,0-0.7,0-1.1c0-0.4-0.1-0.9-0.1-1.6l0-0.3L42.9,44
		c-0.3-0.1-0.6-0.3-0.9-0.4c-0.4-0.2-0.8-0.1-1,0.1c-0.1,0.1-0.2,0.3-0.2,0.6l0.1,5.8c0,1,0,2-0.1,3.1c-0.2,0.1-0.4,0.2-0.6,0.4
		c-0.3,0.3-0.7,0.6-1.1,0.9c-0.4,0.3-0.8,0.6-1.2,0.8c-0.2,0.1-0.4,0.2-0.6,0.1c-0.2-0.1-0.3-0.5-0.4-1.1c0-0.7,0-1.6,0.1-2.5
		c0.1-0.9,0.3-1.9,0.4-2.8c0.2-1,0.3-1.8,0.4-2.4l0.1-0.4L37.5,46c-0.1,0-0.3-0.1-0.5-0.1c-0.4-0.1-0.9-0.1-1.3,0
		c-0.4,0.1-0.6,0.4-0.7,0.9c0,0.8-0.1,1.7-0.5,2.7c-0.4,1.1-0.8,2.1-1.3,3.1c-0.5,1-1,1.7-1.5,2.3c-0.2,0.3-0.4,0.4-0.4,0.5
		c0,0,0-0.1-0.1-0.1c-0.1-0.2-0.1-0.5-0.1-0.7c0-0.3,0-0.5,0-0.8c0-0.2,0-0.4,0-0.5c0.3-2.3,0.5-4.4,0.8-6c0.3-1.7,0.3-2.9,0.2-3.6
		l0-0.1l-0.1-0.1c-0.2-0.2-0.4-0.4-0.7-0.5c-0.2,0-0.4,0.2-0.6,0.1c-0.2,0-0.4,0.2-0.7,0.2h-0.6l0,0.3c0,0.8-0.1,1.6-0.2,2.6
		c-0.1,1-0.2,1.9-0.3,3l-0.3,3c0,0.1,0,0.2,0,0.4c-0.9,1-1.7,1.8-2.4,2.3c-0.6,0.4-1,0.5-1.5,0.3c0,0-0.1-0.1-0.2-0.6
		c-0.1-0.5,0-1,0-1.7c0.1-0.7,0.2-1.5,0.3-2.2c0.2-0.8,0.3-1.6,0.5-2.3c0.2-0.7,0.3-1.4,0.5-1.9c0.1-0.6,0.2-0.9,0.3-1.1l0.1-0.5
		l-0.5-0.1c-1-0.2-1.9-0.1-2.8,0.2c-0.9,0.3-1.8,0.8-2.6,1.4c-0.8,0.6-1.6,1.4-2.4,2.3c-0.7,0.9-1.5,1.9-2.2,2.9
		c-0.5,0.8-0.9,1.7-1.2,2.7c-0.3,1-0.4,2-0.2,2.9c0.4,1.2,1.2,1.4,1.7,1.4l0.1,0c0.7-0.1,1.6-0.4,2.5-1c0.8-0.6,1.7-1.4,2.6-2.5
		c0.3-0.4,0.6-0.8,0.9-1.2c-0.1,0.5-0.1,1.1-0.1,1.6c0,0.6,0,1.1,0.2,1.5c0.4,0.8,1,1,1.4,1c0.5,0,1.1-0.1,1.7-0.3
		c0.6-0.2,1.1-0.6,1.6-0.9c0.5-0.4,0.9-0.7,1.1-1c0.1-0.1,0.2-0.2,0.4-0.5c0,0.6,0,1.2,0,1.7c0,0.4,0.1,0.9,0.4,1.2
		c0.2,0.3,0.4,0.5,0.8,0.7c0.2,0.1,0.4,0.1,0.6,0.1c0.3,0,0.7-0.1,1.1-0.2c0.3-0.1,0.6-0.4,1-0.9c0.3-0.4,0.6-0.8,1-1.4
		c0.3-0.5,0.7-1,1-1.6c0,0.3,0,0.5,0,0.8c0,0.4,0.1,0.8,0.2,1.1c0.1,0.6,0.4,0.8,0.7,0.8c0.5,0.2,1.1,0.2,1.7,0.1
		c0.6-0.1,1.2-0.4,1.8-0.7c0.5-0.3,1.1-0.8,1.5-1.3c0,0,0,0,0,0c-0.1,0.7-0.1,1.5-0.2,2.2c0,0.4,0.2,0.7,0.6,0.8
		c0.2,0.1,0.3,0.1,0.5,0.1c0.1,0,0.2,0,0.3,0c0.3,0,0.5-0.1,0.7-0.2c0.4-0.2,0.6-0.5,0.6-0.9c0-0.2,0-0.6,0-1.1l0.2-1.6
		c0.1-0.5,0.1-1,0.2-1.5c0.1-0.4,0.1-0.8,0.2-1c0.2-0.5,0.5-1,0.8-1.6c0.3-0.6,0.7-1.1,1.1-1.6c0.5-0.5,1-1,1.6-1.3
		c0.6-0.4,1.3-0.6,2-0.8C49.9,46.9,50.3,46.7,50.6,46.5z M22.2,50.2c-0.6,1.1-1.3,2.1-2.1,3c-0.7,0.8-1.4,1.5-2.1,2
		c-0.4,0.3-0.7,0.4-0.8,0.5c0-0.2,0-0.4,0-0.8c0.1-0.7,0.4-1.4,0.9-2.3c0.5-0.9,1.2-1.8,2-2.7c0.8-0.9,1.8-1.7,2.9-2.4
		c0.2-0.1,0.3-0.1,0.4-0.2C23.1,48.3,22.7,49.3,22.2,50.2z"/>
	<path fill="#231F20" d="M62,52.4h-0.5l-0.2,0.1c-1,1.1-1.8,1.8-2.5,2.3c-0.6,0.4-1,0.5-1.5,0.3c0,0-0.1-0.1-0.2-0.6
		c-0.1-0.5,0-1,0-1.7c0.1-0.7,0.2-1.5,0.3-2.2c0.2-0.8,0.3-1.6,0.5-2.3c0.2-0.7,0.3-1.4,0.5-1.9c0.1-0.6,0.2-0.9,0.3-1.1l0.1-0.5
		l-0.5-0.1c-1-0.2-1.9-0.1-2.8,0.2c-0.9,0.3-1.8,0.8-2.6,1.4c-0.8,0.6-1.6,1.4-2.4,2.3c-0.7,0.9-1.5,1.9-2.2,2.9
		c-0.5,0.8-0.9,1.7-1.2,2.7c-0.3,1-0.4,2-0.2,2.9c0.4,1.2,1.2,1.4,1.7,1.4l0.1,0c0.7-0.1,1.6-0.4,2.5-1c0.8-0.6,1.7-1.4,2.6-2.5
		c0.3-0.4,0.6-0.8,0.9-1.2c-0.1,0.5-0.1,1.1-0.1,1.6c0,0.6,0,1.1,0.2,1.5c0.4,0.8,1,1,1.4,1c0.5,0,1.1-0.1,1.7-0.3
		c0.6-0.2,1.1-0.6,1.6-0.9c0.5-0.4,0.9-0.7,1.1-1c0.1-0.1,0.2-0.2,0.5-0.7l0.5-0.8c0.2-0.3,0.4-0.6,0.5-0.9c0.1-0.2,0.2-0.5,0-0.8
		L62,52.4z M54.5,50.2c-0.6,1.1-1.3,2.1-2.1,3c-0.7,0.8-1.4,1.5-2.1,2c-0.4,0.3-0.7,0.4-0.8,0.5c0-0.2,0-0.4,0-0.8
		c0.1-0.7,0.4-1.4,0.9-2.3c0.5-0.9,1.2-1.8,2-2.7c0.8-0.9,1.8-1.7,2.9-2.4c0.2-0.1,0.3-0.1,0.4-0.2C55.4,48.3,55,49.3,54.5,50.2z"/>
	<path fill="#231F20" d="M91.4,47c-0.3-0.4-0.8-0.7-1.4-1c-0.5-0.3-1.1-0.5-1.8-0.8c-0.6-0.2-1.3-0.4-2-0.5
		c-0.7-0.1-1.3-0.2-1.9-0.2l-0.4,0l-0.2,0.3c0,0.1-0.1,0.2-0.4,0.4c-0.1,0.1-0.2,0.1-0.2,0.2l-0.8,0.4l0.7,0.5
		c0.1,0.1,0.1,0.1,0.2,0.2c0.1,0.1,0.1,0.2,0.2,0.3c0,0.1,0.1,0.1,0.1,0.2c0,0.1-0.1,0.2-0.1,0.4l-0.1,0c-0.9,0.3-1.7,0.6-2.5,1
		c-0.7,0.3-1.5,0.6-2.3,1c-0.4-0.3-0.8-0.7-1.4-1.1c-0.7-0.5-1.5-1.1-2.3-1.7c-0.8-0.6-1.7-1.3-2.6-2.1c-0.9-0.7-1.7-1.5-2.5-2.3
		c-0.8-0.8-1.4-1.7-2-2.5c-0.6-0.8-0.9-1.7-1.2-2.6c-0.2-0.7-0.1-1.4,0.2-2c0.3-0.6,0.8-1.2,1.4-1.6c0.7-0.5,1.5-0.8,2.5-1
		c1-0.2,2.1-0.2,3-0.1c0.4,0.1,0.7,0.2,1,0.3c0.3,0.1,0.5,0.2,0.7,0.4c0.2,0.1,0.5,0.3,0.7,0.5c0.2,0.2,0.5,0.4,0.8,0.7l1,0.9
		l-0.1-1.4c0-0.5-0.1-0.8-0.1-1c-0.1-0.2-0.2-0.6-0.4-1.1l-0.1-0.2c-0.7-0.7-1.4-1.3-2.1-1.6c-0.7-0.4-1.5-0.6-2.2-0.6
		c-0.7-0.1-1.5,0-2.2,0.1c-0.7,0.1-1.4,0.3-2.1,0.5c-0.4,0.1-0.8,0.4-1.4,0.8c-0.6,0.4-1.2,0.9-1.7,1.6c-0.5,0.7-0.9,1.5-1.2,2.5
		c-0.3,1-0.3,2.2-0.1,3.5c0.2,1,0.6,2.1,1.3,3.2c0.7,1,1.5,2,2.4,3c0.9,0.9,1.8,1.8,2.8,2.7c1,0.8,1.9,1.6,2.7,2.2l2,1.6
		c0.1,0.1,0.2,0.2,0.3,0.3c-1.6,1.2-3,2.5-4.2,3.7c-1.4,1.4-2.4,2.9-3.1,4.6c-0.3,1.2-0.1,2,0.4,2.5c0.4,0.4,1,0.5,1.7,0.5
		c0.1,0,0.3,0,0.4,0c0.8-0.1,1.7-0.3,2.6-0.7c0.9-0.4,1.8-0.9,2.6-1.4c1.2-0.8,2.3-1.5,3.1-2.2c0.8-0.7,1.4-1.5,1.8-2.2
		c0.3-0.8,0.4-1.6,0.2-2.4c-0.2-0.6-0.6-1.3-1.1-2c0.2-0.1,0.3-0.2,0.5-0.3L82,50c0.4-0.3,0.8-0.5,1.2-0.8c0,0,0,0,0,0
		c0,0.2,0,0.3-0.1,0.5c-0.2,1.2-0.3,2.6-0.3,4.1c0,0.4,0,0.8,0.1,1.3c0.1,0.5,0.3,1,0.5,1.5c0.3,0.5,0.6,0.9,1.1,1.3
		c0.5,0.4,1.1,0.6,1.9,0.6c0.5,0,1.1-0.3,1.7-0.8c0.5-0.5,1-1.1,1.5-1.8c0.4-0.7,0.9-1.5,1.3-2.3c0.4-0.8,0.7-1.7,0.9-2.5
		c0.2-0.8,0.3-1.6,0.3-2.3C92,48,91.8,47.4,91.4,47z M78,56c-0.4,0.5-0.9,1-1.6,1.4c-1,0.6-1.8,1-2.5,1.2c-0.7,0.2-1.2,0.4-1.6,0.4
		c-0.3,0-0.6,0-0.6-0.1l0,0c0.1-0.5,0.4-1,0.9-1.7c0.6-0.7,1.3-1.4,2-2.1c0.7-0.7,1.5-1.3,2.2-1.8c0.6-0.4,1-0.7,1.2-0.8
		c0.4,0.2,0.6,0.5,0.7,0.8c0.2,0.4,0.2,0.8,0.1,1.2C78.7,55,78.4,55.5,78,56z M89.3,51c-0.1,0.6-0.4,1.3-0.8,2
		c-0.4,0.7-0.9,1.4-1.6,2.1c-0.3,0.2-0.4,0.3-0.5,0.3c-0.1,0-0.3,0-0.4,0c-0.1,0-0.3-0.1-0.3-0.2c-0.1-0.1-0.2-0.2-0.2-0.2
		c0-0.1-0.1-0.3-0.2-1c0-0.5,0-1.2,0-1.9c0-0.7,0.2-1.6,0.4-2.5c0.2-0.7,0.4-1.4,0.6-2.2c0.4,0.1,0.7,0.2,0.9,0.3
		c0.4,0.1,0.6,0.2,0.9,0.3c0.2,0.1,0.4,0.1,0.5,0.2l0.5,0.3c0.2,0.2,0.3,0.4,0.4,0.8C89.5,49.9,89.5,50.4,89.3,51z"/>
	<path fill="#231F20" d="M107.1,50.2c0-2.1,0-4.1,0-6.2c0-2,0.1-4,0.1-6c0.1-1.9,0.3-4.1,0.5-5.9l0.1-0.8H106
		c-0.5,0-0.9,0.3-1.1,0.8c-0.1,0.2-0.2,0.7-0.2,1c0,0.3,0,0.7,0,1c0,0.3,0,0.6,0,0.9c0,1,0,2.3,0,4c0,1.7,0,3.6,0,5.6
		c0,2-0.1,4.2-0.1,6.2c0,0.8,0,1.6-0.1,2.6h-0.1c-0.3,0-0.5,0-0.9,0.3c-0.3,0.3-0.7,0.5-1.1,0.9c-0.4,0.3-0.8,0.6-1.2,0.8
		c-0.2,0.1-0.4,0.2-0.6,0c-0.2-0.1-0.3-0.5-0.4-1.1c0-0.7,0-1.6,0.1-2.5c0.1-0.9,0.3-1.9,0.4-2.8c0.2-1,0.3-1.8,0.4-2.4l0.1-0.4
		l-0.4-0.1c-0.1,0-0.3-0.1-0.5-0.1c-0.5-0.1-0.9-0.1-1.3,0c-0.4,0.1-0.6,0.4-0.7,0.9c0,0.8-0.1,1.7-0.5,2.7
		c-0.4,1.1-0.8,2.1-1.3,3.1c-0.5,1-1,1.7-1.5,2.3c-0.2,0.3-0.4,0.4-0.4,0.5c0,0,0-0.1-0.1-0.1c-0.1-0.2-0.1-0.5-0.1-0.7
		c0-0.3,0-0.5,0-0.8c0-0.2,0-0.4,0-0.5c0.3-2.3,0.5-4.4,0.8-6c0.3-1.7,0.3-2.9,0.2-3.6l0-0.1l-0.1-0.1c-0.2-0.2-0.4-0.4-0.7-0.5
		c-0.2,0-0.4,0.2-0.6,0.1c-0.2,0-0.4,0.2-0.7,0.2h-0.6l0,0.3c0,0.8,0.1,1.6,0,2.6c-0.1,1,0,1.9-0.1,3l-0.3,3c-0.1,1-0.3,1.9-0.3,2.6
		c0,0.8-0.1,1.4-0.1,2c0,0.4,0.1,0.9,0.3,1.2c0.2,0.3,0.4,0.5,0.8,0.7c0.2,0.1,0.4,0.1,0.6,0.1c0.3,0,0.7-0.1,1.1-0.2
		c0.3-0.1,0.6-0.4,1-0.9c0.3-0.4,0.6-0.8,1-1.4c0.3-0.5,0.7-1,1-1.6c0,0.3,0,0.5,0,0.8c0,0.4,0.1,0.8,0.2,1.1
		c0.1,0.6,0.4,0.8,0.7,0.8c0.5,0.2,1.1,0.2,1.7,0.1c0.6-0.1,1.2-0.4,1.8-0.7c0.5-0.3,1.1-0.8,1.5-1.3c0.2-0.2,0.3-0.4,0.5-0.6
		c0,0.5-0.1,1-0.1,1.5l0,0.1c0.1,0.5,0.5,0.8,1.1,0.8c0.1,0,0.3,0,0.5-0.1c0.2,0,0.4,0,0.5,0c0.3,0,0.6-0.3,0.8-0.7l0-0.1l0-0.1
		C107.1,54.4,107.2,52.3,107.1,50.2z"/>
	<path fill="#231F20" d="M120.6,51.1c0-0.3-0.3-0.5-0.5-0.5l-0.3,0l-0.3,0.2c-0.4,0.5-0.8,0.9-1.2,1.3c-0.4,0.3-0.9,0.8-1.5,1.3
		c-0.4,0.3-0.9,0.7-1.5,1.2c-0.6,0.4-1.2,0.8-1.8,1c-0.6,0.2-1.1,0.3-1.5,0.2c-0.1,0-0.4-0.1-0.7-0.5c1.2-0.8,2.3-1.7,3.2-2.6
		c1-1,1.9-2.3,2.6-3.9c0.6-1.5,0.6-2.6,0-3.2c-0.5-0.5-1.2-0.8-2.1-0.8l-0.1,0c-0.3-0.1-0.8-0.1-1.2,0.1l-0.9,0.3
		c-0.7,0.4-1.3,0.8-1.8,1.5c-0.5,0.6-1,1.3-1.5,2.2c-0.7,1.6-1.1,2.9-1.2,4c-0.1,1-0.1,1.9,0,2.5c0,0.2,0.1,0.4,0.2,0.6
		c0.1,0.2,0.2,0.5,0.4,0.8c0.2,0.3,0.5,0.6,0.9,0.8c0.4,0.3,0.8,0.5,1.5,0.7c0.4,0.1,0.7,0.1,1.1,0.1c0.3,0,0.7,0,1-0.1
		c0.6-0.1,1.2-0.4,1.7-0.7c0.5-0.3,1-0.7,1.5-1.1c0.4-0.4,0.9-0.8,1.4-1.2c0.4-0.4,0.7-0.8,1-1c0.3-0.3,0.5-0.5,0.7-0.7
		c0.2-0.2,0.4-0.4,0.5-0.6c0.1-0.2,0.2-0.4,0.4-0.7c0.1-0.3,0.1-0.5,0.2-0.6C120.6,51.5,120.6,51.3,120.6,51.1z M111.6,51.1
		c0.3-0.8,0.7-1.6,1.2-2.2c0.4-0.6,0.9-1.1,1.3-1.4c0.2-0.2,0.4-0.2,0.6-0.2c0.1,0,0.2,0,0.3,0.1c0,0.1,0,0.2-0.1,0.5
		c-0.1,0.6-0.3,1.1-0.6,1.6c-0.4,0.5-0.8,1-1.2,1.5c-0.5,0.4-0.9,0.8-1.5,1.2c-0.1,0.1-0.3,0.2-0.4,0.3
		C111.3,51.9,111.4,51.5,111.6,51.1z"/>
</g>
</svg>
